HIERARCHY
ROOT Hips
{
	OFFSET 0.00000 0.00000 0.00000
	CHANNELS 6 Xposition Yposition Zposition Zrotation Yrotation Xrotation 
	JOINT LHipJoint
	{
		OFFSET 0 0 0
		CHANNELS 3 Zrotation Yrotation Xrotation
		JOINT LeftHip
		{
			OFFSET 1.59801 -1.77853 0.57028
			CHANNELS 3 Zrotation Yrotation Xrotation
			JOINT LeftKnee
			{
				OFFSET 2.39439 -6.57854 0.00000
				CHANNELS 3 Zrotation Yrotation Xrotation
				JOINT LeftAnkle
				{
					OFFSET 2.69334 -7.39989 0.00000
					CHANNELS 3 Zrotation Yrotation Xrotation
					JOINT LeftToe
					{
						OFFSET 0.09553 -0.26245 1.73747
						CHANNELS 3 Zrotation Yrotation Xrotation
						End Site
						{
							OFFSET 0.00000 -0.00000 0.89391
						}
					}
				}
			}
		}
	}
	JOINT RHipJoint
	{
		OFFSET 0 0 0
		CHANNELS 3 Zrotation Yrotation Xrotation
		JOINT RightHip
		{
			OFFSET -1.54704 -1.77852 0.57028
			CHANNELS 3 Zrotation Yrotation Xrotation
			JOINT RightKnee
			{
				OFFSET -2.40286 -6.60180 0.00000
				CHANNELS 3 Zrotation Yrotation Xrotation
				JOINT RightAnkle
				{
					OFFSET -2.63873 -7.24984 0.00000
					CHANNELS 3 Zrotation Yrotation Xrotation
					JOINT RightToe
					{
						OFFSET -0.15631 -0.42945 1.84436
						CHANNELS 3 Zrotation Yrotation Xrotation
						End Site
						{
							OFFSET -0.00000 -0.00000 0.95734
						}
					}
				}
			}
		}
	}
	JOINT lowerback
	{
		OFFSET 0 0 0
		CHANNELS 3 Zrotation Yrotation Xrotation
		JOINT Chest
		{
			OFFSET -0.00436 1.89866 -0.04018
			CHANNELS 3 Zrotation Yrotation Xrotation
			JOINT Chest2
			{
				OFFSET 0.02031 1.88273 0.09634
				CHANNELS 3 Zrotation Yrotation Xrotation
				JOINT lowerneck
				{
					OFFSET 0 0 0
					CHANNELS 3 Zrotation Yrotation Xrotation
					JOINT Neck
					{
						OFFSET -0.13105 1.89371 0.23083
						CHANNELS 3 Zrotation Yrotation Xrotation
						JOINT Head
						{
							OFFSET 0.17062 1.83990 -0.54062
							CHANNELS 3 Zrotation Yrotation Xrotation
							End Site
							{
								OFFSET 0.04576 1.94782 -0.21839
							}
						}
					}
				}
				JOINT LeftCollar
				{
					OFFSET 0 0 0
					CHANNELS 3 Zrotation Yrotation Xrotation
					JOINT LeftShoulder
					{
						OFFSET 3.12424 1.09204 0.22226
CHANNELS 3 Zrotation Xrotation Yrotation
						JOINT LeftElbow
						{
OFFSET 0 -5.292770 0.000000
CHANNELS 3 Zrotation Xrotation Yrotation
							JOINT LeftWrist
							{
OFFSET 0 -2.852260 0.000000
CHANNELS 3 Zrotation Xrotation Yrotation
								JOINT lhand
								{
									OFFSET 0 0 0
CHANNELS 3 Zrotation Xrotation Yrotation
									JOINT LFingers
									{
OFFSET 0 -0.602100 0.000000
CHANNELS 3 Zrotation Xrotation Yrotation
										End Site
										{
OFFSET 0 -0.485430 0.000000
										}
									}
								}
								JOINT LThumb
								{
OFFSET 0 0.000000 0.000000
CHANNELS 3 Zrotation Xrotation Yrotation
									End Site
									{
OFFSET 0 -0.492840 0.492840
									}
								}
							}
						}
					}
				}
				JOINT RightCollar
				{
					OFFSET 0 0 0
					CHANNELS 3 Zrotation Yrotation Xrotation
					JOINT RightShoulder
					{
						OFFSET -2.91709 1.01504 0.30199
CHANNELS 3 Zrotation Xrotation Yrotation
						JOINT RightElbow
						{
OFFSET 0 -5.133040 0.000000
CHANNELS 3 Zrotation Xrotation Yrotation
							JOINT RightWrist
							{
OFFSET 0 -2.743050 0.000000
CHANNELS 3 Zrotation Xrotation Yrotation
								JOINT rhand
								{
									OFFSET 0 0 0
CHANNELS 3 Zrotation Xrotation Yrotation
									JOINT RFingers
									{
OFFSET 0 -0.767980 0.000000
CHANNELS 3 Zrotation Xrotation Yrotation
										End Site
										{
OFFSET 0 -0.619160 0.000000
										}
									}
								}
								JOINT RThumb
								{
OFFSET 0 0.000000 0.000000
CHANNELS 3 Zrotation Xrotation Yrotation
									End Site
									{
OFFSET 0 -0.628620 0.628620
									}
								}
							}
						}
					}
				}
			}
		}
	}
}
MOTION
Frames: 11
Frame Time: 0.008333333333333333
0.568792 17.529545 -0.533745 0.477503 -2.012811 7.920551 0.000000 0.000000 0.000000 -20.418608 -14.967025 -4.361427 0.471295 4.402977 12.213179 0.273867 5.961614 -13.854286 0.869615 -5.944169 -16.622994 0.000000 0.000000 0.000000 16.240867 17.119791 -0.015960 -0.108198 -2.120917 5.839866 0.503494 -13.945164 -11.872140 -0.664838 5.214497 -14.521354 1.061245 0.041192 1.250468 1.980470 0.101549 -0.735925 1.432074 0.050274 -1.456720 -18.000834 -11.722634 -12.485438 19.610987 -15.565602 9.581589 7.507689 -6.890673 8.089620 0.000000 0.000000 0.000000 -0.703630 -19.171181 -92.569954 16.549398 -26.256368 3.887790 -2.289899 7.497139 -23.241392 0.000000 0.000000 0.000000 -7.125000 0.000000 0.000000 -30.970906 50.458535 4.542641 0.000000 0.000000 0.000000 -2.609976 -2.255766 56.217394 -15.051197 -24.216238 -3.247526 -7.089265 33.504760 -11.501877 0.000000 0.000000 0.000000 7.125000 0.000000 0.000000 13.998773 18.574740 9.086790
0.326678 17.446381 -0.425109 -1.076624 3.655569 5.016932 0.000000 0.000000 0.000000 -17.885536 -18.884254 -3.437015 0.987751 6.325382 17.731557 0.521039 4.204661 -15.822474 0.942154 -6.182127 -17.313850 0.000000 0.000000 0.000000 19.823930 9.216427 -0.456068 -0.289489 -3.459735 9.561384 0.068857 -10.843998 -14.355495 -0.483391 4.458010 -12.368978 0.065851 0.083008 0.065975 1.148253 0.125824 -1.355638 1.137384 0.069827 -1.427245 -20.880553 -12.579639 -6.679802 21.966267 -18.175364 11.597093 8.657644 -8.426979 8.795626 0.000000 0.000000 0.000000 6.181699 -34.157752 -82.233309 66.381091 -57.766192 39.700731 -11.588122 -16.010163 -22.239914 0.000000 0.000000 0.000000 -7.125000 0.000000 0.000000 -38.369732 48.208618 3.528409 0.000000 0.000000 0.000000 -7.310124 -4.729312 64.540801 -21.297324 -32.173626 -6.207586 -7.825146 18.589982 -12.006781 0.000000 0.000000 0.000000 7.125000 0.000000 0.000000 13.462723 18.049254 8.877735
0.166844 17.169020 -0.198390 -2.302198 3.400519 -0.389982 0.000000 0.000000 0.000000 -17.271876 -15.687832 -2.194363 2.116223 9.103689 26.120435 1.133319 -0.253244 -20.050047 0.803106 -5.719265 -15.972153 0.000000 0.000000 0.000000 22.088318 6.045449 -0.552509 -1.210996 -6.979905 19.656376 -0.713295 -6.505113 -19.620313 -0.465444 4.376116 -12.137284 -0.930851 1.230785 -0.665994 0.141057 1.646012 -0.398730 0.675009 0.824886 -0.065224 -21.312349 -11.992278 0.024871 23.003469 -19.574377 15.985876 9.441192 -9.457857 9.529128 0.000000 0.000000 0.000000 -7.724897 -24.046979 -20.769246 134.985115 -50.774583 97.749369 7.609787 -62.419423 -22.598263 0.000000 0.000000 0.000000 -7.125000 0.000000 0.000000 -21.511003 51.466394 3.561014 0.000000 0.000000 0.000000 -4.648461 -5.675190 33.681303 -14.732348 -23.771811 -3.117329 -11.513346 15.441602 -7.414602 0.000000 0.000000 0.000000 7.125000 0.000000 0.000000 11.134957 22.455361 6.151347
0.065120 16.788795 -0.368562 -2.281109 7.901666 -4.951212 0.000000 0.000000 0.000000 -16.616061 -13.436902 -5.180289 3.801581 11.891585 35.349420 1.326964 -7.440883 -20.592815 1.412329 -7.516037 -21.253642 0.000000 0.000000 0.000000 21.378707 -0.577850 -4.611706 -2.955006 -10.621861 31.015013 -1.581284 -2.689483 -24.853493 -0.380459 3.961224 -10.967601 -3.096534 1.681590 2.909177 0.808447 2.206009 4.225552 2.549771 1.006463 2.570167 -20.810877 -13.200458 2.341948 28.646921 -22.625990 14.405221 11.174545 -10.842886 10.204669 0.000000 0.000000 0.000000 -5.104879 -18.826100 -11.025310 125.253379 -54.737682 89.990543 8.725808 -62.363926 -24.878053 0.000000 0.000000 0.000000 -7.125000 0.000000 0.000000 -21.693587 53.774453 4.857017 0.000000 0.000000 0.000000 -6.374050 -3.542253 28.287302 -16.770861 -26.554643 -3.984345 -13.602120 13.311678 -9.200378 0.000000 0.000000 0.000000 7.125000 0.000000 0.000000 9.546709 20.577161 5.660151
0.018593 16.916884 -0.644641 -0.885572 10.622190 0.246502 0.000000 0.000000 0.000000 -16.741609 -17.668280 -10.408080 3.409556 11.330283 33.402085 0.979150 -7.525558 -17.690459 0.895100 -6.029999 -16.871595 0.000000 0.000000 0.000000 19.966510 1.319279 -10.677364 -2.987135 -10.674193 31.188945 -1.316623 -4.609816 -23.777090 -0.405008 4.085526 -11.317381 -2.662763 1.299924 5.565851 1.484223 1.626414 4.068486 2.944990 0.748257 0.955477 -20.488535 -14.445129 -3.219661 32.107996 -21.578368 3.612544 11.729466 -10.175028 7.976918 0.000000 0.000000 0.000000 0.680290 -18.090356 -45.326496 26.790193 -37.977829 9.369987 0.742166 -15.473689 -21.298841 0.000000 0.000000 0.000000 -7.125000 0.000000 0.000000 -27.147637 49.219446 3.027456 0.000000 0.000000 0.000000 -6.211458 -1.063043 33.303480 -18.009868 -28.169731 -4.553838 -17.021524 6.937950 -8.278331 0.000000 0.000000 0.000000 7.125000 0.000000 0.000000 7.116196 21.354707 4.067144
-0.011022 17.271332 -0.647692 0.876959 1.043408 5.976592 0.000000 0.000000 0.000000 -17.869523 -17.232888 -8.832391 1.646716 8.087691 22.980735 0.775321 2.176661 -17.558621 0.985204 -6.317766 -17.709220 0.000000 0.000000 0.000000 17.818501 10.693853 -10.773122 -1.734467 -8.289443 23.596639 -0.680227 -5.874703 -18.810860 -0.567452 4.824458 -13.408461 -1.356174 -2.230395 4.442214 -0.373591 -3.047489 0.263704 0.564260 -1.507823 -2.166118 -17.349723 -15.144186 -12.046084 24.920236 -21.362325 7.547213 8.066288 -9.366624 9.219689 0.000000 0.000000 0.000000 3.243939 -10.174988 -67.508107 8.715830 -14.705956 1.127433 -3.188690 31.422686 -19.735225 0.000000 0.000000 0.000000 -7.125000 0.000000 0.000000 -29.786184 47.288148 1.836045 0.000000 0.000000 0.000000 -6.829596 -8.845635 81.161025 -53.690351 -54.360066 -29.153422 -5.507576 -1.897545 -12.018790 0.000000 0.000000 0.000000 7.125000 0.000000 0.000000 15.047715 18.131887 9.967775
-0.106902 17.260091 -0.473742 -2.095023 7.523492 3.822959 0.000000 0.000000 0.000000 -14.492229 -18.166765 -8.104302 1.918161 8.693485 24.841167 0.822388 -1.972112 -16.580954 1.139014 -6.776449 -19.055206 0.000000 0.000000 0.000000 22.431516 7.190594 -5.716053 -1.176376 -6.884055 19.372338 -0.452270 -9.343487 -19.359353 -0.335459 3.722208 -10.296466 -1.316062 -1.664014 3.204190 -0.891465 -2.316335 -1.936659 -0.032463 -1.130555 -3.775073 -16.699750 -11.686607 -17.788280 7.376770 -13.457555 21.313324 3.175937 -6.658271 11.569380 0.000000 0.000000 0.000000 -9.930546 -27.978113 -86.892689 34.783653 -44.626346 14.671576 1.593251 -10.812592 -23.165731 0.000000 0.000000 0.000000 -7.125000 0.000000 0.000000 -27.415384 51.007489 4.337285 0.000000 0.000000 0.000000 -16.626010 2.421661 51.858056 -143.832153 -45.625774 -104.356831 -3.975680 -18.721581 -11.956424 0.000000 0.000000 0.000000 7.125000 0.000000 0.000000 16.094406 18.244229 10.676691
0.232172 17.220206 -0.147632 1.765441 -6.366210 1.392264 0.000000 0.000000 0.000000 -21.981200 -10.739062 -0.799337 1.290886 7.198980 20.306319 0.940765 4.655221 -20.574268 0.601769 -4.964118 -13.806589 0.000000 0.000000 0.000000 16.985465 12.959203 -3.051512 -1.573755 -7.915107 22.456640 -0.913884 -3.286602 -19.531552 -0.626443 5.064539 -14.092697 -1.615659 -0.606425 -0.331756 0.611000 -0.814415 -2.269203 1.544057 -0.370962 -2.109014 -17.063945 -14.969364 -13.130334 15.695793 -21.146089 19.256861 4.890994 -9.476609 12.097307 0.000000 0.000000 0.000000 11.130100 2.011422 -49.868074 99.787562 -59.629677 68.465449 19.263370 -23.740406 -18.086362 0.000000 0.000000 0.000000 -7.125000 0.000000 0.000000 -8.607952 48.871148 0.827105 0.000000 0.000000 0.000000 -13.606747 -11.286158 60.826204 -145.517857 -44.438587 -105.550339 -16.948630 -12.894205 -15.105871 0.000000 0.000000 0.000000 7.125000 0.000000 0.000000 7.182972 14.309019 5.227396
0.238698 17.167400 -0.048792 0.332538 1.287516 -0.152843 0.000000 0.000000 0.000000 -19.963130 -11.497469 -1.475746 1.719636 8.255865 23.494029 1.061022 -1.587976 -19.005084 0.693189 -5.318413 -14.820075 0.000000 0.000000 0.000000 19.417459 9.469753 -0.157643 -1.499306 -7.734347 21.910095 -0.864089 -7.214016 -21.607271 -0.385402 3.986454 -11.038608 -0.181699 -1.547141 -2.249533 0.002461 -2.060128 -2.591408 0.083762 -1.027065 -1.387932 -15.230744 -11.319409 -17.262555 12.723709 -15.146407 21.958007 4.662268 -6.726144 12.321393 0.000000 0.000000 0.000000 13.254532 -11.691758 -50.218368 112.217174 -58.049184 79.114471 13.185657 -18.226677 -18.804160 0.000000 0.000000 0.000000 -7.125000 0.000000 0.000000 -14.594953 48.697112 1.357609 0.000000 0.000000 0.000000 -19.675969 -3.580668 46.657299 -150.820060 -40.179926 -109.123346 -16.606544 -15.083441 -14.557749 0.000000 0.000000 0.000000 7.125000 0.000000 0.000000 7.404188 14.904185 5.295662
0.200137 17.143625 -0.381754 -1.286367 4.946674 -0.058400 0.000000 0.000000 0.000000 -17.469869 -13.464390 -5.151181 2.207973 9.286428 26.695553 0.968087 -4.250336 -17.656288 0.699971 -5.347701 -14.903003 0.000000 0.000000 0.000000 20.890888 7.184602 -2.569413 -1.577617 -7.924451 22.484796 -0.747494 -7.901782 -21.055083 -0.401042 4.065711 -11.261716 -0.179311 -1.881026 0.300286 0.570617 -2.506177 -0.433266 0.703382 -1.250963 -0.578289 -16.359513 -12.009957 -17.353059 16.017206 -15.804781 15.933834 5.821115 -6.828866 10.648463 0.000000 0.000000 0.000000 9.136206 -17.996094 -53.841775 113.224115 -57.860562 79.968183 11.228530 -18.005048 -18.013669 0.000000 0.000000 0.000000 -7.125000 0.000000 0.000000 -16.118600 47.650160 1.080490 0.000000 0.000000 0.000000 -18.809721 1.053795 45.545978 -148.114697 -42.455291 -107.336593 -15.188274 -19.807890 -15.039104 0.000000 0.000000 0.000000 7.125000 0.000000 0.000000 8.371475 14.537987 6.068454
0.381621 17.197619 -1.102219 2.593040 -2.277662 4.112023 0.000000 0.000000 0.000000 -21.321539 -13.900913 -10.285726 1.850451 8.547353 24.389276 0.715889 1.873977 -16.767111 0.889027 -6.008503 -16.809552 0.000000 0.000000 0.000000 14.022221 12.335853 -12.623764 -2.266380 -9.400110 27.055191 -0.806840 -3.448462 -18.556390 -0.624595 5.057415 -14.072260 -1.130485 -0.083943 5.744552 1.747795 -0.165001 3.840597 2.439992 -0.123285 0.740803 -16.993696 -12.885868 -14.181454 22.927036 -17.328478 7.170568 8.073086 -7.442962 8.280304 0.000000 0.000000 0.000000 9.693148 -14.742382 -62.568777 37.398805 -46.392760 16.547417 2.477597 -3.790779 -19.763142 0.000000 0.000000 0.000000 -7.125000 0.000000 0.000000 -24.812143 48.089341 2.005839 0.000000 0.000000 0.000000 -19.516726 -7.623767 55.907022 -115.603396 -57.356712 -81.974662 -11.806478 -5.461016 -13.672234 0.000000 0.000000 0.000000 7.125000 0.000000 0.000000 10.674050 16.178591 7.408255
